PathFileType	4	(X/Y/Z)	c:/Users/goper/Files/vsCode/490R/osim_files/C08/C08_SSWS_01.trc
DataRate	CameraRate	NumFrames	NumMarkers	Units                	OrigDataRate	OrigDataStartFrame	OrigNumFrames
250.00	250.00	6	36	mm	250.0	1563	2500
                Frame#	Time	LPSIS			LASIS			LTH1			LTH2			LTH3			LTH4			LLFE			LMFE			LSH1			LSH2			LSH3			LSH4			LLMAL			LMMAL			LCAL			LMTP5			LTOE			LMTP1			RPSIS			RASIS			RTH1			RTH2			RTH3			RTH4			RLFE			RMFE			RSH1			RSH2			RSH3			RSH4			RLMAL			RMMAL			RCAL			RMTP1			RTOE			RMTP5		
		X1	Y1	Z1	X2	Y2	Z2	X3	Y3	Z3	X4	Y4	Z4	X5	Y5	Z5	X6	Y6	Z6	X7	Y7	Z7	X8	Y8	Z8	X9	Y9	Z9	X10	Y10	Z10	X11	Y11	Z11	X12	Y12	Z12	X13	Y13	Z13	X14	Y14	Z14	X15	Y15	Z15	X16	Y16	Z16	X17	Y17	Z17	X18	Y18	Z18	X19	Y19	Z19	X20	Y20	Z20	X21	Y21	Z21	X22	Y22	Z22	X23	Y23	Z23	X24	Y24	Z24	X25	Y25	Z25	X26	Y26	Z26	X27	Y27	Z27	X28	Y28	Z28	X29	Y29	Z29	X30	Y30	Z30	X31	Y31	Z31	X32	Y32	Z32	X33	Y33	Z33	X34	Y34	Z34	X35	Y35	Z35	X36	Y36	Z36

1563	6.24800	-1793.32434	1054.21729	201.78941	-1993.21863	1018.57336	298.29816	-1959.19666	739.09717	379.72058	-1983.52820	664.37811	370.73892	-2005.48352	593.24084	371.17258	-2059.56250	692.17517	370.07947	-2014.71338	546.45312	364.11719	-2058.79980	537.14911	241.88200	-1922.55261	490.46381	362.55627	-1896.56360	450.82855	361.08978	-1968.91833	451.87921	373.72073	-1936.84692	419.09595	368.31903	-1730.27979	237.94734	298.55127	-1768.97766	222.92456	218.20329	-1679.47131	261.66745	232.29948	-1765.00134	114.78787	339.72742	-1832.59058	90.38017	292.76541	-1803.49988	92.28286	235.86205	-1797.96082	1053.99451	142.19373	-1998.85498	1019.92975	60.84141	-1938.42285	751.69623	5.97585	-1940.32019	674.42346	25.81573	-1942.37830	596.23431	37.29053	-2014.04517	681.31018	53.89198	-1945.70264	523.65411	57.81173	-1941.92615	521.85828	183.76399	-1888.94580	440.54846	42.80607	-1894.90637	395.97714	39.62147	-1950.72217	440.31647	52.34463	-1947.80798	395.62131	47.75529	-1884.18225	97.73280	109.17748	-1916.46155	105.08719	197.44693	-1828.34973	76.50127	181.20474	-2044.61841	45.68180	184.56653	-2061.03149	63.02779	129.08109	-2007.81311	42.75465	71.98559
1564	6.25200	-1797.58594	1054.68774	202.15883	-1997.88794	1019.48877	297.63339	-1965.96240	740.08954	379.90829	-1990.28711	666.01733	371.30310	-2013.90820	594.54083	370.42847	-2066.42212	693.92383	369.27380	-2022.50659	547.75848	363.66000	-2065.94116	538.91620	241.25122	-1930.90186	490.37921	362.16223	-1905.35815	450.30612	360.90527	-1977.78076	452.44260	373.22333	-1946.13599	419.27359	368.01920	-1741.85876	235.06799	299.17581	-1780.92419	220.23389	218.89114	-1690.32495	257.72888	233.02727	-1778.81213	112.64798	340.54550	-1846.52307	89.19408	293.28918	-1816.93359	90.58091	236.41264	-1802.11694	1054.41675	142.49248	-2002.63708	1020.23413	60.60344	-1940.95703	751.90106	5.96922	-1943.12549	674.46436	25.94697	-1943.95154	596.40106	37.32228	-2016.13220	681.08002	53.93177	-1946.77429	523.84900	57.76654	-1943.14880	521.90765	183.79106	-1889.65979	440.88336	42.85717	-1895.45776	396.32077	39.66608	-1951.34009	440.47876	52.14929	-1948.39868	395.79514	47.67730	-1884.32874	97.92628	109.17815	-1916.66589	105.30836	197.43225	-1828.46387	76.72166	181.22354	-2044.68103	45.73624	184.49774	-2061.08057	62.95528	128.98615	-2007.83167	42.72525	71.93712
1565	6.25600	-1801.78821	1055.07971	202.52899	-2002.43994	1020.27563	296.95517	-1971.91223	741.32593	380.07135	-1997.22131	667.09363	371.48709	-2021.47827	595.85394	370.21323	-2073.44849	695.56195	368.83652	-2030.39465	549.55707	364.19040	-2072.96240	540.67419	240.55489	-1938.97742	490.18591	362.69144	-1914.72107	450.36267	361.63559	-1986.61169	452.96710	372.73520	-1955.40417	419.29630	367.73721	-1753.55798	232.02919	299.83139	-1792.43762	217.75134	219.43608	-1701.42517	253.72145	233.93626	-1792.83118	110.40717	341.30878	-1860.70276	88.08525	293.83337	-1831.78235	88.76715	237.48662	-1806.25574	1054.77905	142.77348	-2006.38794	1020.48352	60.41307	-1943.54993	752.11267	5.99609	-1945.30701	674.67053	25.96786	-1945.45459	596.56720	37.25287	-2018.25366	680.82269	53.95721	-1947.92664	524.00519	57.74642	-1944.41431	521.94775	183.83299	-1890.38855	441.21115	42.93813	-1896.03723	396.62543	39.70247	-1952.17993	440.62460	52.10696	-1948.98718	395.92932	47.58298	-1884.47302	98.05746	109.20158	-1916.85815	105.53957	197.42361	-1828.44739	76.74249	181.22656	-2044.73804	45.73818	184.46823	-2061.12231	62.88150	128.88773	-2007.83057	42.66488	71.89188
1566	6.26000	-1806.12903	1055.45081	202.86797	-2007.00195	1020.95502	296.28055	-1978.27576	742.28760	380.22714	-2004.15222	667.85822	370.54782	-2028.96570	597.16809	369.98532	-2080.02368	697.29187	367.95477	-2038.15344	550.63562	363.79257	-2079.87085	542.31421	239.85759	-1947.38647	489.84497	361.27036	-1922.96875	449.04669	360.51038	-1995.41931	453.44421	372.17703	-1964.70837	419.29706	367.41498	-1765.36255	228.86307	300.45297	-1804.10864	215.21432	219.95177	-1712.57678	249.51990	234.76294	-1806.98938	108.08984	342.04224	-1874.95618	86.90980	294.38528	-1845.85168	86.92902	238.09087	-1810.25049	1055.17273	143.00821	-2010.13367	1020.68811	60.22507	-1946.08923	752.27106	5.95834	-1947.42334	674.78070	25.92164	-1947.06885	596.83234	37.27131	-2020.38818	680.55798	53.99871	-1949.04712	524.16565	57.70943	-1945.72791	521.97913	183.89011	-1891.19348	441.49435	42.98245	-1896.70117	396.94632	39.75175	-1952.97205	440.76584	52.02640	-1949.60425	396.07855	47.47255	-1884.62866	98.24736	109.20293	-1917.49231	105.61862	197.92668	-1828.75159	77.00593	181.32808	-2044.74622	45.71989	184.41431	-2061.17236	62.80494	128.79840	-2007.84070	42.62934	71.83785
1567	6.26400	-1810.30371	1055.80811	203.20540	-2011.60327	1021.57013	295.56009	-1984.54565	743.20288	380.45688	-2011.67529	669.35284	372.29434	-2036.45007	598.39447	369.74985	-2086.63379	698.88177	367.44891	-2045.76880	552.09656	363.17621	-2086.62793	543.90173	239.15924	-1955.62170	489.52411	360.83371	-1931.70447	448.27911	360.30338	-2004.17065	453.85489	371.68829	-1973.91016	419.26352	367.12982	-1777.26648	225.63943	301.08972	-1815.77490	212.62645	220.45695	-1723.78564	245.17525	235.64116	-1821.27234	105.73026	342.74063	-1889.48926	85.76273	294.86102	-1860.12109	85.09301	238.69063	-1814.42554	1055.45435	143.26608	-2013.93689	1020.83447	60.02788	-1948.69385	752.43262	5.98235	-1949.44275	674.90009	25.92541	-1948.68689	597.03485	37.25610	-2022.57349	680.28552	54.01107	-1950.25757	524.28430	57.68663	-1947.09583	522.00208	183.96277	-1891.49207	442.27484	42.95288	-1897.39819	397.25443	39.79243	-1953.79456	440.87411	51.99287	-1950.35376	396.20328	47.36602	-1884.75452	98.31273	109.25259	-1917.68921	105.80356	197.94656	-1828.50659	77.40527	181.21698	-2044.76221	45.70149	184.36835	-2061.22314	62.70095	128.74750	-2007.85925	42.57525	71.78363
1568	6.26800	-1814.54968	1056.15234	203.56075	-2016.18970	1022.15387	294.88596	-1990.42065	744.06433	380.50491	-2018.50488	670.08832	370.62253	-2043.46484	599.77814	369.42459	-2093.66504	700.37579	367.37878	-2053.38379	553.31335	362.69003	-2093.26904	545.48309	238.40627	-1963.66125	489.02017	360.48898	-1940.13867	447.18036	360.06390	-2012.83423	454.22757	371.19418	-1983.12122	419.08112	366.76627	-1789.29932	222.28528	301.74481	-1828.13306	209.80310	221.20563	-1735.10645	240.63620	236.42265	-1835.73389	103.32433	343.47018	-1904.01001	84.59432	295.29575	-1874.49365	83.25530	239.27370	-1818.44397	1055.76038	143.48676	-2018.02197	1021.09595	59.75793	-1951.26587	752.60657	6.01818	-1951.58203	675.01025	25.91945	-1950.25330	597.07703	37.18095	-2024.76599	680.02655	54.06426	-1951.48279	524.47626	57.60857	-1948.52393	522.01709	184.05128	-1892.34778	442.64609	43.01802	-1898.10315	397.56512	39.86587	-1954.68848	440.99387	51.89829	-1952.04468	396.29318	48.13794	-1885.01660	98.41694	109.33649	-1917.88660	105.98603	197.96468	-1828.60156	77.59256	181.23674	-2044.76746	45.67397	184.31068	-2061.22437	62.59377	128.64714	-2007.88696	42.54576	71.75623
